<?xml version="1.0" encoding="iso-8859-1"?>
<!-- Generator: Adobe Illustrator 19.0.0, SVG Export Plug-In . SVG Version: 6.00 Build 0)  -->
<svg version="1.1" id="Layer_1" xmlns="http://www.w3.org/2000/svg" xmlns:xlink="http://www.w3.org/1999/xlink" x="0px" y="0px"
	 viewBox="0 0 512 512" style="enable-background:new 0 0 512 512;" xml:space="preserve">
<path style="fill:#FFC82E;" d="M273.497,512h-34.994L64,325.933V80h15c35.841,0,65-29.159,65-65V0h224v15c0,35.841,29.159,65,65,65
	h15v245.933L273.497,512z"/>
<path style="fill:#FFA81F;" d="M433,80c-35.841,0-65-29.159-65-65V0H256v512h17.497L448,325.933V80H433z"/>
<path style="fill:#FF3200;" d="M256,365c-77.196,0-140-62.804-140-140S178.804,85,256,85s140,62.804,140,140S333.196,365,256,365z"
	/>
<path style="fill:#C10019;" d="M257,85.013v279.975c76.737-0.541,139-63.125,139-139.987S333.737,85.553,257,85.013z"/>
<path style="fill:#FFA81F;" d="M289.887,198.145c-2.631-1.673-5.5-3.228-8.608-4.663c-2.631-1.314-5.591-2.538-8.877-3.676
	c-3.289-1.134-6.607-2-9.953-2.6v16.14c1.076,0.241,2.211,0.569,3.407,0.986c1.194,0.42,2.449,0.807,3.766,1.166
	c5.856,1.794,11.147,3.766,15.871,5.918c4.722,2.152,8.756,4.693,12.105,7.622c3.346,2.931,5.918,6.487,7.712,10.67
	c1.793,4.186,2.69,9.266,2.69,15.243c0,7.056-1.228,13.063-3.677,18.023c-2.452,4.962-5.68,9.028-9.684,12.195
	c-4.007,3.169-8.58,5.559-13.719,7.174c-5.142,1.614-10.463,2.6-15.96,2.959V307h-14.347v-22.058
	c-8.249-0.717-16.44-2.331-24.569-4.842c-8.131-2.511-15.422-5.677-21.879-9.505l15.064-30.666
	c3.228,2.035,6.694,3.945,10.402,5.739c3.107,1.555,6.725,3.079,10.849,4.573c4.124,1.496,8.339,2.541,12.643,3.138v-15.781
	c-3.708-0.955-7.415-2.09-11.119-3.407c-5.622-1.911-10.463-3.973-14.526-6.187c-4.066-2.211-7.415-4.722-10.043-7.532
	c-2.631-2.808-4.573-6.008-5.828-9.594c-1.256-3.587-1.884-7.712-1.884-12.374c0-6.456,1.076-12.164,3.228-17.126
	c2.152-4.96,5.08-9.236,8.788-12.822c3.704-3.586,8.038-6.456,13.001-8.608c4.959-2.152,10.25-3.525,15.871-4.125V137.71h14.347
	v18.292c3.945,0.479,7.77,1.196,11.477,2.152c3.705,0.958,7.263,2.063,10.67,3.318c3.407,1.256,6.604,2.572,9.594,3.945
	c2.987,1.376,5.739,2.662,8.25,3.856L289.887,198.145z M245.951,192.765c0,1.793,0.596,3.259,1.793,4.394
	c1.194,1.137,2.987,2.183,5.38,3.138v-13.629C248.34,187.268,245.951,189.299,245.951,192.765z M270.34,248.358
	c0-1.672-0.717-3.138-2.152-4.393c-1.434-1.256-3.348-2.359-5.738-3.318v13.27c2.869-0.238,4.901-0.835,6.097-1.793
	C269.74,251.169,270.34,249.913,270.34,248.358z"/>
<path style="fill:#FF8700;" d="M305.31,229.708c-1.793-4.184-4.366-7.739-7.711-10.67c-3.349-2.929-7.384-5.47-12.105-7.622
	c-4.724-2.152-10.014-4.124-15.871-5.918c-1.317-0.359-2.572-0.745-3.766-1.166c-1.196-0.417-2.331-0.745-3.407-0.986v-16.14
	c3.346,0.6,6.664,1.466,9.953,2.6c3.287,1.138,6.246,2.362,8.877,3.676c3.108,1.435,5.977,2.99,8.608,4.663l15.064-28.872
	c-2.51-1.194-5.263-2.48-8.25-3.856c-2.99-1.373-6.187-2.69-9.594-3.945c-3.407-1.255-6.965-2.359-10.67-3.318
	c-3.707-0.956-7.532-1.672-11.477-2.152V137.71H257V307h7.96v-21.699c5.497-0.359,10.818-1.345,15.96-2.959
	c5.139-1.614,9.712-4.004,13.719-7.173c4.004-3.166,7.232-7.232,9.684-12.195c2.449-4.96,3.677-10.967,3.677-18.023
	C308,238.974,307.103,233.894,305.31,229.708z M268.546,252.124c-1.197,0.958-3.228,1.555-6.097,1.793v-13.27
	c2.39,0.958,4.304,2.062,5.738,3.318c1.435,1.255,2.152,2.721,2.152,4.393C270.339,249.913,269.74,251.169,268.546,252.124z"/>
<g>
</g>
<g>
</g>
<g>
</g>
<g>
</g>
<g>
</g>
<g>
</g>
<g>
</g>
<g>
</g>
<g>
</g>
<g>
</g>
<g>
</g>
<g>
</g>
<g>
</g>
<g>
</g>
<g>
</g>
</svg>
